<svg xmlns="http://www.w3.org/2000/svg" viewBox="0 0 720 200" width="720" height="200">
  <defs>
    <radialGradient id="sealFill2" cx="40%" cy="35%" r="75%">
      <stop offset="0%" stop-color="#8a3a44"/>
      <stop offset="55%" stop-color="#722F37"/>
      <stop offset="100%" stop-color="#4d1f25"/>
    </radialGradient>
    <radialGradient id="sealHi2" cx="35%" cy="28%" r="40%">
      <stop offset="0%" stop-color="#ffffff" stop-opacity="0.18"/>
      <stop offset="100%" stop-color="#ffffff" stop-opacity="0"/>
    </radialGradient>
  </defs>

  <!-- Icon (left) -->
  <g transform="translate(100 100)">
    <g fill="url(#sealFill2)" stroke="#3d181d" stroke-width="1">
      <circle cx="0" cy="-82" r="7.5"/>
      <circle cx="21.2" cy="-79.2" r="7.5"/>
      <circle cx="41" cy="-71" r="7.5"/>
      <circle cx="58" cy="-58" r="7.5"/>
      <circle cx="71" cy="-41" r="7.5"/>
      <circle cx="79.2" cy="-21.2" r="7.5"/>
      <circle cx="82" cy="0" r="7.5"/>
      <circle cx="79.2" cy="21.2" r="7.5"/>
      <circle cx="71" cy="41" r="7.5"/>
      <circle cx="58" cy="58" r="7.5"/>
      <circle cx="41" cy="71" r="7.5"/>
      <circle cx="21.2" cy="79.2" r="7.5"/>
      <circle cx="0" cy="82" r="7.5"/>
      <circle cx="-21.2" cy="79.2" r="7.5"/>
      <circle cx="-41" cy="71" r="7.5"/>
      <circle cx="-58" cy="58" r="7.5"/>
      <circle cx="-71" cy="41" r="7.5"/>
      <circle cx="-79.2" cy="21.2" r="7.5"/>
      <circle cx="-82" cy="0" r="7.5"/>
      <circle cx="-79.2" cy="-21.2" r="7.5"/>
      <circle cx="-71" cy="-41" r="7.5"/>
      <circle cx="-58" cy="-58" r="7.5"/>
      <circle cx="-41" cy="-71" r="7.5"/>
      <circle cx="-21.2" cy="-79.2" r="7.5"/>
    </g>
    <circle r="77" fill="url(#sealFill2)" stroke="#3d181d" stroke-width="1.5"/>
    <circle r="65" fill="none" stroke="#C9A961" stroke-width="2" opacity="0.85"/>
    <circle r="61.5" fill="none" stroke="#C9A961" stroke-width="0.6" opacity="0.6"/>
    <text x="0" y="24"
          text-anchor="middle"
          font-family="'Cormorant Garamond', 'Playfair Display', Georgia, serif"
          font-size="120"
          font-weight="500"
          font-style="italic"
          fill="#C9A961">S</text>
    <circle r="77" fill="url(#sealHi2)" pointer-events="none"/>
  </g>

  <!-- Wordmark (right) -->
  <g transform="translate(210 0)">
    <text x="0" y="118"
          font-family="'Playfair Display', 'Cormorant Garamond', Georgia, serif"
          font-size="64"
          font-weight="600"
          letter-spacing="-1"
          fill="#2a1418">SealTheDay</text>
    <text x="3" y="148"
          font-family="'Inter', system-ui, sans-serif"
          font-size="14"
          font-weight="500"
          letter-spacing="5"
          fill="#722F37">YOUR WEDDING MEMORY VAULT</text>
  </g>
</svg>
